<?xml version="1.0" encoding="UTF-8"?>
<!DOCTYPE svg PUBLIC "-//W3C//DTD SVG 1.1//EN" "http://www.w3.org/Graphics/SVG/1.1/DTD/svg11.dtd">
<svg xmlns="http://www.w3.org/2000/svg" version="1.1" width="64px" height="64px" style="shape-rendering:geometricPrecision; text-rendering:geometricPrecision; image-rendering:optimizeQuality; fill-rule:evenodd; clip-rule:evenodd" xmlns:xlink="http://www.w3.org/1999/xlink">
<g><path style="opacity:1" fill="#444f4e" d="M -0.5,-0.5 C 20.8333,-0.5 42.1667,-0.5 63.5,-0.5C 63.5,20.8333 63.5,42.1667 63.5,63.5C 42.1667,63.5 20.8333,63.5 -0.5,63.5C -0.5,42.1667 -0.5,20.8333 -0.5,-0.5 Z"/></g>
<g><path style="opacity:1" fill="#927847" d="M 16.5,13.5 C 15.8501,13.1961 15.1835,12.8627 14.5,12.5C 13.5481,14.0453 13.2148,15.712 13.5,17.5C 12.0804,13.8174 12.4138,10.1507 14.5,6.5C 15.0016,5.47899 15.6683,5.31232 16.5,6C 13.8978,8.5843 13.8978,11.0843 16.5,13.5 Z"/></g>
<g><path style="opacity:1" fill="#deb49a" d="M 37.5,12.5 C 37.8333,11.8333 38.1667,11.1667 38.5,10.5C 40.4741,8.57203 41.9741,6.23869 43,3.5C 44.2623,8.30736 42.7623,11.974 38.5,14.5C 37.7025,14.0431 37.3691,13.3764 37.5,12.5 Z"/></g>
<g><path style="opacity:1" fill="#948074" d="M 38.5,10.5 C 38.1667,11.1667 37.8333,11.8333 37.5,12.5C 35.544,10.8249 34.2107,11.1582 33.5,13.5C 32.6236,13.6309 31.9569,13.2975 31.5,12.5C 32.1709,10.4929 33.1709,8.65955 34.5,7C 34.3552,6.22797 34.0219,5.5613 33.5,5C 34.3317,4.31232 34.9984,4.47899 35.5,5.5C 36.2745,7.39635 37.2745,9.06302 38.5,10.5 Z"/></g>
<g><path style="opacity:1" fill="#806b47" d="M 55.5,13.5 C 55.1667,13.5 54.8333,13.5 54.5,13.5C 54.2394,8.18567 54.9061,7.68567 56.5,12C 56.4301,12.7648 56.0967,13.2648 55.5,13.5 Z"/></g>
<g><path style="opacity:1" fill="#9a7c45" d="M 10.5,12.5 C 11.782,13.7082 11.782,15.0416 10.5,16.5C 9.37437,15.1916 9.37437,13.8583 10.5,12.5 Z"/></g>
<g><path style="opacity:1" fill="#ba8c70" d="M 48.5,12.5 C 48.7373,13.791 48.404,14.791 47.5,15.5C 46.1434,16.6854 44.6434,17.6854 43,18.5C 41.9701,18.1639 41.4701,17.4972 41.5,16.5C 45.6146,15.0576 47.6146,12.0576 47.5,7.5C 48.4519,9.04533 48.7852,10.712 48.5,12.5 Z"/></g>
<g><path style="opacity:1" fill="#df7330" d="M 48.5,12.5 C 49.4345,13.5676 49.7678,14.901 49.5,16.5C 49.6107,17.1174 49.944,17.6174 50.5,18C 48.8043,19.1764 47.1376,20.343 45.5,21.5C 44.7611,21.631 44.0944,21.4643 43.5,21C 46.2146,20.1253 47.5479,18.2919 47.5,15.5C 48.404,14.791 48.7373,13.791 48.5,12.5 Z"/></g>
<g><path style="opacity:1" fill="#e5893a" d="M 54.5,13.5 C 54.8333,13.5 55.1667,13.5 55.5,13.5C 53.979,17.4844 54.8123,18.1511 58,15.5C 58.1667,16 58.3333,16.5 58.5,17C 57.2698,19.1477 56.2698,21.3144 55.5,23.5C 53.8042,19.9776 53.1375,20.6442 53.5,25.5C 52.3951,26.6005 51.0618,27.2671 49.5,27.5C 49.6716,26.5084 49.3382,25.8417 48.5,25.5C 49.5,24.1667 50.5,22.8333 51.5,21.5C 52.9313,20.2196 53.5979,18.5529 53.5,16.5C 53.2627,15.209 53.596,14.209 54.5,13.5 Z"/></g>
<g><path style="opacity:1" fill="#2c323a" d="M 33.5,13.5 C 34.552,13.3505 35.552,13.5172 36.5,14C 36.1667,14.3333 35.8333,14.6667 35.5,15C 36.4162,15.3742 37.2496,15.8742 38,16.5C 39.2917,15.2089 40.4583,15.2089 41.5,16.5C 41.4701,17.4972 41.9701,18.1639 43,18.5C 44.6434,17.6854 46.1434,16.6854 47.5,15.5C 47.5479,18.2919 46.2146,20.1253 43.5,21C 44.0944,21.4643 44.7611,21.631 45.5,21.5C 45.4701,22.4972 45.9701,23.1639 47,23.5C 48.4064,22.5862 49.9064,21.9195 51.5,21.5C 50.5,22.8333 49.5,24.1667 48.5,25.5C 47.1667,26.1667 45.8333,26.8333 44.5,27.5C 43.6236,27.3691 42.9569,27.7025 42.5,28.5C 45.0865,29.48 47.7531,29.8134 50.5,29.5C 48.9096,31.2338 46.9096,32.4005 44.5,33C 54.1081,31.2756 54.7748,32.7756 46.5,37.5C 45.1667,36.0665 43.6667,34.7332 42,33.5C 41.7216,34.4158 41.2216,35.0825 40.5,35.5C 40.8896,30.5776 39.7229,30.2443 37,34.5C 36.2496,33.8742 35.4162,33.3742 34.5,33C 38.8946,27.3284 38.3946,22.1617 33,17.5C 32.821,20.1475 32.9876,22.8141 33.5,25.5C 33.4095,28.336 32.7429,31.0027 31.5,33.5C 30.4706,35.5168 29.4706,37.5168 28.5,39.5C 26.7497,40.6594 25.7497,42.326 25.5,44.5C 24.5,44.8333 23.8333,45.5 23.5,46.5C 22.6618,46.1583 22.3284,45.4916 22.5,44.5C 24.1011,41.8763 25.7678,39.2096 27.5,36.5C 29.1042,35.713 29.7709,34.3797 29.5,32.5C 25.1157,32.5236 21.7823,34.3569 19.5,38C 18.2068,38.49 16.8734,38.6567 15.5,38.5C 17.316,36.8816 18.6493,34.8816 19.5,32.5C 20.5,31.8333 21.5,31.1667 22.5,30.5C 22.56,31.0431 22.8933,31.3764 23.5,31.5C 24.4478,28.285 25.7811,27.9516 27.5,30.5C 29.8524,28.822 31.1857,26.4887 31.5,23.5C 30.4787,21.812 29.1454,20.4787 27.5,19.5C 28.0899,18.234 28.5899,16.9007 29,15.5C 29.2492,16.624 29.7492,17.624 30.5,18.5C 31.2745,16.6036 32.2745,14.937 33.5,13.5 Z"/></g>
<g><path style="opacity:1" fill="#d4a07a" d="M 27.5,19.5 C 27.4431,20.609 27.1098,21.609 26.5,22.5C 24.0213,23.6227 21.688,23.6227 19.5,22.5C 19.3284,21.5084 19.6618,20.8417 20.5,20.5C 22.4788,19.1879 24.1455,17.5212 25.5,15.5C 26.2824,17.3293 25.6157,18.8293 23.5,20C 24.8193,20.195 26.1526,20.0283 27.5,19.5 Z"/></g>
<g><path style="opacity:1" fill="#c28e72" d="M 49.5,16.5 C 50.8333,16.5 52.1667,16.5 53.5,16.5C 53.5979,18.5529 52.9313,20.2196 51.5,21.5C 49.9064,21.9195 48.4064,22.5862 47,23.5C 45.9701,23.1639 45.4701,22.4972 45.5,21.5C 47.1376,20.343 48.8043,19.1764 50.5,18C 49.944,17.6174 49.6107,17.1174 49.5,16.5 Z"/></g>
<g><path style="opacity:1" fill="#67554f" d="M 27.5,19.5 C 29.1454,20.4787 30.4787,21.812 31.5,23.5C 31.1857,26.4887 29.8524,28.822 27.5,30.5C 25.7811,27.9516 24.4478,28.285 23.5,31.5C 22.8933,31.3764 22.56,31.0431 22.5,30.5C 22.5,29.5 22.5,28.5 22.5,27.5C 23.8734,27.6567 25.2068,27.49 26.5,27C 24.6183,26.8019 22.9516,26.3019 21.5,25.5C 22.648,24.8359 23.9813,24.6692 25.5,25C 26.2524,24.3292 26.5858,23.4959 26.5,22.5C 27.1098,21.609 27.4431,20.609 27.5,19.5 Z"/></g>
<g><path style="opacity:1" fill="#a4653d" d="M 19.5,22.5 C 21.688,23.6227 24.0213,23.6227 26.5,22.5C 26.5858,23.4959 26.2524,24.3292 25.5,25C 23.9813,24.6692 22.648,24.8359 21.5,25.5C 20.391,25.5569 19.391,25.8902 18.5,26.5C 16.9219,24.6253 17.2552,23.2919 19.5,22.5 Z"/></g>
<g><path style="opacity:1" fill="#ec9c41" d="M 16.5,13.5 C 17.1752,16.1785 18.5085,18.5118 20.5,20.5C 19.6618,20.8417 19.3284,21.5084 19.5,22.5C 17.2552,23.2919 16.9219,24.6253 18.5,26.5C 15.5437,28.7882 13.877,31.7882 13.5,35.5C 12.5233,38.2869 12.19,41.2869 12.5,44.5C 12.0623,45.5063 11.3957,45.5063 10.5,44.5C 11.4054,43.0357 11.4054,41.7024 10.5,40.5C 10.8039,39.8501 11.1373,39.1835 11.5,38.5C 9.42075,35.3986 7.75409,32.0653 6.5,28.5C 7.93371,27.7702 9.10037,26.7702 10,25.5C 10.4652,26.9308 11.2986,28.0975 12.5,29C 11.5494,29.7175 11.3828,30.5509 12,31.5C 12.9435,30.737 13.4435,29.737 13.5,28.5C 12.1551,26.6772 11.6551,24.6772 12,22.5C 12.7096,23.9733 13.8762,24.6399 15.5,24.5C 15.8342,21.812 15.1675,19.4786 13.5,17.5C 13.2148,15.712 13.5481,14.0453 14.5,12.5C 15.1835,12.8627 15.8501,13.1961 16.5,13.5 Z"/></g>
<g><path style="opacity:1" fill="#d46833" d="M 55.5,23.5 C 55.4208,24.9305 55.7542,26.2638 56.5,27.5C 54.9182,29.5771 53.9182,31.9104 53.5,34.5C 52.3263,35.5137 51.6596,36.847 51.5,38.5C 50.209,38.2627 49.209,38.596 48.5,39.5C 46.9317,40.4731 45.265,40.6397 43.5,40C 44.4711,38.959 45.4711,38.1257 46.5,37.5C 54.7748,32.7756 54.1081,31.2756 44.5,33C 46.9096,32.4005 48.9096,31.2338 50.5,29.5C 52.2624,28.7377 53.2624,27.4044 53.5,25.5C 53.1375,20.6442 53.8042,19.9776 55.5,23.5 Z"/></g>
<g><path style="opacity:1" fill="#c99675" d="M 21.5,25.5 C 22.9516,26.3019 24.6183,26.8019 26.5,27C 25.2068,27.49 23.8734,27.6567 22.5,27.5C 22.5,28.5 22.5,29.5 22.5,30.5C 21.5,31.1667 20.5,31.8333 19.5,32.5C 15.9672,31.2041 14.9672,32.3708 16.5,36C 15.5842,36.2784 14.9175,36.7784 14.5,37.5C 13.6618,37.1583 13.3284,36.4916 13.5,35.5C 13.877,31.7882 15.5437,28.7882 18.5,26.5C 19.391,25.8902 20.391,25.5569 21.5,25.5 Z"/></g>
<g><path style="opacity:1" fill="#ca3e21" d="M 48.5,25.5 C 49.3382,25.8417 49.6716,26.5084 49.5,27.5C 47.6656,28.494 45.9989,28.494 44.5,27.5C 45.8333,26.8333 47.1667,26.1667 48.5,25.5 Z"/></g>
<g><path style="opacity:1" fill="#9a6653" d="M 53.5,25.5 C 53.2624,27.4044 52.2624,28.7377 50.5,29.5C 47.7531,29.8134 45.0865,29.48 42.5,28.5C 42.9569,27.7025 43.6236,27.3691 44.5,27.5C 45.9989,28.494 47.6656,28.494 49.5,27.5C 51.0618,27.2671 52.3951,26.6005 53.5,25.5 Z"/></g>
<g><path style="opacity:1" fill="#6c5246" d="M 19.5,32.5 C 18.6493,34.8816 17.316,36.8816 15.5,38.5C 14.8333,38.5 14.5,38.1667 14.5,37.5C 14.9175,36.7784 15.5842,36.2784 16.5,36C 14.9672,32.3708 15.9672,31.2041 19.5,32.5 Z"/></g>
<g><path style="opacity:1" fill="#bc8762" d="M 28.5,39.5 C 29.4706,37.5168 30.4706,35.5168 31.5,33.5C 33.1053,32.0313 33.6053,32.3646 33,34.5C 31.9509,36.6175 30.4509,38.2842 28.5,39.5 Z"/></g>
<g><path style="opacity:1" fill="#d0532c" d="M 27.5,36.5 C 25.1815,36.9925 23.1815,37.9925 21.5,39.5C 20.0695,39.4208 18.7362,39.7542 17.5,40.5C 15.9853,42.0822 14.3186,43.4155 12.5,44.5C 12.19,41.2869 12.5233,38.2869 13.5,35.5C 13.3284,36.4916 13.6618,37.1583 14.5,37.5C 14.5,38.1667 14.8333,38.5 15.5,38.5C 16.8734,38.6567 18.2068,38.49 19.5,38C 21.7823,34.3569 25.1157,32.5236 29.5,32.5C 29.7709,34.3797 29.1042,35.713 27.5,36.5 Z"/></g>
<g><path style="opacity:1" fill="#494649" d="M 40.5,35.5 C 39.7701,36.7124 38.7701,37.7124 37.5,38.5C 38.2743,42.6054 36.6076,45.6054 32.5,47.5C 31.3595,48.4255 31.3595,49.2588 32.5,50C 31.7562,51.0386 30.7562,51.5386 29.5,51.5C 29.3893,50.8826 29.056,50.3826 28.5,50C 30.16,48.5123 31.16,46.679 31.5,44.5C 32.9599,42.5372 34.6266,40.7038 36.5,39C 36,38.5 35.5,38 35,37.5C 33.6667,38.8333 32.3333,40.1667 31,41.5C 30.0053,40.9341 29.172,40.2674 28.5,39.5C 30.4509,38.2842 31.9509,36.6175 33,34.5C 33.6053,32.3646 33.1053,32.0313 31.5,33.5C 32.7429,31.0027 33.4095,28.336 33.5,25.5C 32.9876,22.8141 32.821,20.1475 33,17.5C 38.3946,22.1617 38.8946,27.3284 34.5,33C 35.4162,33.3742 36.2496,33.8742 37,34.5C 39.7229,30.2443 40.8896,30.5776 40.5,35.5 Z"/></g>
<g><path style="opacity:1" fill="#ad7e69" d="M 56.5,42.5 C 55.8365,40.9581 55.1698,39.2914 54.5,37.5C 53.16,38.8665 51.8267,40.1999 50.5,41.5C 50.5569,40.391 50.8902,39.391 51.5,38.5C 51.6596,36.847 52.3263,35.5137 53.5,34.5C 54.1174,34.3893 54.6174,34.056 55,33.5C 55.2492,34.624 55.7492,35.624 56.5,36.5C 59.112,36.0153 59.112,36.8487 56.5,39C 57.6843,40.1455 57.6843,41.3121 56.5,42.5 Z"/></g>
<g><path style="opacity:1" fill="#8c6557" d="M 27.5,36.5 C 25.7678,39.2096 24.1011,41.8763 22.5,44.5C 22.44,43.9569 22.1067,43.6236 21.5,43.5C 20.1667,44.5 18.8333,45.5 17.5,46.5C 17.2129,45.7997 16.8795,45.1331 16.5,44.5C 17.5437,42.1571 19.2103,40.4905 21.5,39.5C 23.1815,37.9925 25.1815,36.9925 27.5,36.5 Z"/></g>
<g><path style="opacity:1" fill="#e2b27e" d="M 10.5,40.5 C 11.4054,41.7024 11.4054,43.0357 10.5,44.5C 7.97805,42.9982 7.97805,41.6649 10.5,40.5 Z"/></g>
<g><path style="opacity:1" fill="#813d2b" d="M 48.5,39.5 C 49.209,38.596 50.209,38.2627 51.5,38.5C 50.8902,39.391 50.5569,40.391 50.5,41.5C 48.8333,42.5 47.5,43.8333 46.5,45.5C 44.4017,46.9143 43.4017,46.2476 43.5,43.5C 46.0842,43.4312 48.0842,42.2645 49.5,40C 49.2716,39.6012 48.9382,39.4346 48.5,39.5 Z"/></g>
<g><path style="opacity:1" fill="#c28e72" d="M 21.5,39.5 C 19.2103,40.4905 17.5437,42.1571 16.5,44.5C 14.9731,44.427 13.9731,45.0937 13.5,46.5C 12.7656,47.8775 12.0989,49.3775 11.5,51C 12.8333,52.3333 14.1667,53.6667 15.5,55C 14.9056,55.4643 14.2389,55.631 13.5,55.5C 10.8075,52.4193 9.80749,48.7527 10.5,44.5C 11.3957,45.5063 12.0623,45.5063 12.5,44.5C 14.3186,43.4155 15.9853,42.0822 17.5,40.5C 18.7362,39.7542 20.0695,39.4208 21.5,39.5 Z"/></g>
<g><path style="opacity:1" fill="#cfa992" d="M 31.5,44.5 C 30.2058,45.2899 29.0391,46.2899 28,47.5C 27.6667,46.8333 27.3333,46.1667 27,45.5C 24.6355,50.6418 24.1355,50.3085 25.5,44.5C 25.7497,42.326 26.7497,40.6594 28.5,39.5C 29.172,40.2674 30.0053,40.9341 31,41.5C 32.3333,40.1667 33.6667,38.8333 35,37.5C 35.5,38 36,38.5 36.5,39C 34.6266,40.7038 32.9599,42.5372 31.5,44.5 Z"/></g>
<g><path style="opacity:1" fill="#6e453e" d="M 56.5,42.5 C 55.8333,43.5 55.1667,44.5 54.5,45.5C 53.7321,44.7375 53.2321,43.7375 53,42.5C 50.9084,44.4747 49.0751,46.4747 47.5,48.5C 46.8902,47.609 46.5569,46.609 46.5,45.5C 47.5,43.8333 48.8333,42.5 50.5,41.5C 51.8267,40.1999 53.16,38.8665 54.5,37.5C 55.1698,39.2914 55.8365,40.9581 56.5,42.5 Z"/></g>
<g><path style="opacity:1" fill="#b15631" d="M 22.5,44.5 C 19.7687,46.0714 17.9354,48.4048 17,51.5C 14.4438,50.7809 13.2771,49.1142 13.5,46.5C 13.9731,45.0937 14.9731,44.427 16.5,44.5C 16.8795,45.1331 17.2129,45.7997 17.5,46.5C 18.8333,45.5 20.1667,44.5 21.5,43.5C 22.1067,43.6236 22.44,43.9569 22.5,44.5 Z"/></g>
<g><path style="opacity:1" fill="#6e473c" d="M 22.5,44.5 C 22.3284,45.4916 22.6618,46.1583 23.5,46.5C 23.3713,48.2161 23.038,49.8828 22.5,51.5C 20.2239,51.7565 19.0572,53.0898 19,55.5C 18.6667,55.1667 18.3333,54.8333 18,54.5C 18.3308,56.0187 18.1641,57.352 17.5,58.5C 16.2597,57.3412 14.9264,56.3412 13.5,55.5C 14.2389,55.631 14.9056,55.4643 15.5,55C 14.1667,53.6667 12.8333,52.3333 11.5,51C 12.0989,49.3775 12.7656,47.8775 13.5,46.5C 13.2771,49.1142 14.4438,50.7809 17,51.5C 17.9354,48.4048 19.7687,46.0714 22.5,44.5 Z"/></g>
<g><path style="opacity:1" fill="#907265" d="M 25.5,44.5 C 24.1355,50.3085 24.6355,50.6418 27,45.5C 27.3333,46.1667 27.6667,46.8333 28,47.5C 29.0391,46.2899 30.2058,45.2899 31.5,44.5C 31.16,46.679 30.16,48.5123 28.5,50C 29.056,50.3826 29.3893,50.8826 29.5,51.5C 28.1667,51.5 26.8333,51.5 25.5,51.5C 24.5,51.5 23.5,51.5 22.5,51.5C 23.038,49.8828 23.3713,48.2161 23.5,46.5C 23.8333,45.5 24.5,44.8333 25.5,44.5 Z"/></g>
<g><path style="opacity:1" fill="#aa5c3d" d="M 54.5,45.5 C 55.4911,48.5358 54.8245,51.2025 52.5,53.5C 51.8333,53.1667 51.1667,52.8333 50.5,52.5C 50.719,51.325 50.3857,50.325 49.5,49.5C 46.9079,52.1176 44.0746,54.4509 41,56.5C 40.3333,55.8333 40.3333,55.1667 41,54.5C 43.3353,52.5998 45.502,50.5998 47.5,48.5C 49.0751,46.4747 50.9084,44.4747 53,42.5C 53.2321,43.7375 53.7321,44.7375 54.5,45.5 Z"/></g>
<g><path style="opacity:1" fill="#594947" d="M 22.5,51.5 C 23.5,51.5 24.5,51.5 25.5,51.5C 28.986,52.5333 32.6526,53.3666 36.5,54C 34.1667,54.3333 31.8333,54.6667 29.5,55C 28.944,55.3826 28.6107,55.8826 28.5,56.5C 25.9272,56.1485 23.5938,56.6485 21.5,58C 22.7932,58.49 24.1266,58.6567 25.5,58.5C 23.0521,59.4731 20.3854,59.8064 17.5,59.5C 17.5,59.1667 17.5,58.8333 17.5,58.5C 18.1641,57.352 18.3308,56.0187 18,54.5C 18.3333,54.8333 18.6667,55.1667 19,55.5C 19.0572,53.0898 20.2239,51.7565 22.5,51.5 Z"/></g>
<g><path style="opacity:1" fill="#1d2632" d="M 46.5,37.5 C 45.4711,38.1257 44.4711,38.959 43.5,40C 45.265,40.6397 46.9317,40.4731 48.5,39.5C 48.9382,39.4346 49.2716,39.6012 49.5,40C 48.0842,42.2645 46.0842,43.4312 43.5,43.5C 43.4017,46.2476 44.4017,46.9143 46.5,45.5C 46.5569,46.609 46.8902,47.609 47.5,48.5C 45.502,50.5998 43.3353,52.5998 41,54.5C 40.3333,55.1667 40.3333,55.8333 41,56.5C 44.0746,54.4509 46.9079,52.1176 49.5,49.5C 50.3857,50.325 50.719,51.325 50.5,52.5C 48.4508,52.7058 48.1175,53.5391 49.5,55C 47.6803,55.2004 46.347,56.0337 45.5,57.5C 45.5,58.5 45.5,59.5 45.5,60.5C 35.985,60.8269 26.6517,60.4936 17.5,59.5C 20.3854,59.8064 23.0521,59.4731 25.5,58.5C 27.4286,58.7692 29.0953,58.2692 30.5,57C 29.9056,56.5357 29.2389,56.369 28.5,56.5C 28.6107,55.8826 28.944,55.3826 29.5,55C 31.8333,54.6667 34.1667,54.3333 36.5,54C 32.6526,53.3666 28.986,52.5333 25.5,51.5C 26.8333,51.5 28.1667,51.5 29.5,51.5C 30.7562,51.5386 31.7562,51.0386 32.5,50C 31.3595,49.2588 31.3595,48.4255 32.5,47.5C 36.6076,45.6054 38.2743,42.6054 37.5,38.5C 38.7701,37.7124 39.7701,36.7124 40.5,35.5C 41.2216,35.0825 41.7216,34.4158 42,33.5C 43.6667,34.7332 45.1667,36.0665 46.5,37.5 Z"/></g>
<g><path style="opacity:1" fill="#6a423b" d="M 50.5,52.5 C 51.1667,52.8333 51.8333,53.1667 52.5,53.5C 51.1707,56.4799 48.8374,57.8132 45.5,57.5C 46.347,56.0337 47.6803,55.2004 49.5,55C 48.1175,53.5391 48.4508,52.7058 50.5,52.5 Z"/></g>
<g><path style="opacity:1" fill="#8a6758" d="M 28.5,56.5 C 29.2389,56.369 29.9056,56.5357 30.5,57C 29.0953,58.2692 27.4286,58.7692 25.5,58.5C 24.1266,58.6567 22.7932,58.49 21.5,58C 23.5938,56.6485 25.9272,56.1485 28.5,56.5 Z"/></g>
</svg>
